<svg xmlns="http://www.w3.org/2000/svg" version="1.1" xmlns:xlink="http://www.w3.org/1999/xlink" viewBox="0 0 200 200"><rect width="200" height="200" fill="url('#gradient')"></rect><defs><linearGradient id="gradient" gradientTransform="rotate(45 0.5 0.5)"><stop offset="0%" stop-color="#f4efe8"></stop><stop offset="100%" stop-color="#f9f5ee"></stop></linearGradient></defs><g><g fill="#000000" transform="matrix(4.631155778894472,0,0,4.631155778894472,6.888186143091573,132.9317741537813)" stroke="#3a7671" stroke-width="0.2"><path d="M9.17-4.81L12.58-4.81Q12.51-3.33 11.78-2.19Q11.04-1.05 9.72-0.43Q8.40 0.20 6.70 0.20L6.70 0.20Q3.90 0.20 2.29-1.63Q0.67-3.46 0.67-6.79L0.67-6.79L0.67-7.49Q0.67-9.58 1.40-11.15Q2.13-12.71 3.50-13.57Q4.86-14.42 6.66-14.42L6.66-14.42Q9.25-14.42 10.82-13.06Q12.39-11.70 12.61-9.31L12.61-9.31L9.19-9.31Q9.15-10.61 8.54-11.17Q7.92-11.74 6.66-11.74L6.66-11.74Q5.38-11.74 4.79-10.78Q4.19-9.82 4.16-7.72L4.16-7.72L4.16-6.72Q4.16-4.44 4.73-3.47Q5.30-2.49 6.70-2.49L6.70-2.49Q7.88-2.49 8.51-3.05Q9.13-3.60 9.17-4.81L9.17-4.81ZM26.24-7.47L26.24-6.82Q26.24-4.74 25.47-3.13Q24.70-1.53 23.28-0.67Q21.86 0.20 20.04 0.20Q18.22 0.20 16.82-0.64Q15.41-1.47 14.62-3.03Q13.84-4.58 13.80-6.59L13.80-6.59L13.80-7.39Q13.80-9.48 14.57-11.08Q15.33-12.68 16.76-13.54Q18.19-14.41 20.02-14.41L20.02-14.41Q21.83-14.41 23.24-13.55Q24.66-12.70 25.44-11.11Q26.23-9.52 26.24-7.47L26.24-7.47ZM22.75-6.76L22.75-7.41Q22.75-9.53 22.05-10.63Q21.34-11.73 20.02-11.73L20.02-11.73Q17.44-11.73 17.29-7.86L17.29-7.86L17.29-6.82Q17.29-4.73 17.98-3.60Q18.67-2.48 20.04-2.48L20.04-2.48Q21.34-2.48 22.04-3.58Q22.74-4.69 22.75-6.76L22.75-6.76ZM36.10-4.81L39.51-4.81Q39.44-3.33 38.71-2.19Q37.98-1.05 36.66-0.43Q35.33 0.20 33.63 0.20L33.63 0.20Q30.83 0.20 29.22-1.63Q27.61-3.46 27.61-6.79L27.61-6.79L27.61-7.49Q27.61-9.58 28.33-11.15Q29.06-12.71 30.43-13.57Q31.80-14.42 33.59-14.42L33.59-14.42Q36.18-14.42 37.75-13.06Q39.33-11.70 39.54-9.31L39.54-9.31L36.12-9.31Q36.08-10.61 35.47-11.17Q34.85-11.74 33.59-11.74L33.59-11.74Q32.31-11.74 31.72-10.78Q31.12-9.82 31.09-7.72L31.09-7.72L31.09-6.72Q31.09-4.44 31.67-3.47Q32.24-2.49 33.63-2.49L33.63-2.49Q34.81-2.49 35.44-3.05Q36.06-3.60 36.10-4.81L36.10-4.81Z"></path></g></g></svg>