<svg xmlns="http://www.w3.org/2000/svg" version="1.1" xmlns:xlink="http://www.w3.org/1999/xlink" viewBox="0 0 200 200"><rect width="200" height="200" fill="url('#gradient')"></rect><defs><linearGradient id="gradient" gradientTransform="rotate(45 0.5 0.5)"><stop offset="0%" stop-color="#f4efe8"></stop><stop offset="100%" stop-color="#f9f5ee"></stop></linearGradient></defs><g><g fill="#000000" transform="matrix(3.396977515665315,0,0,3.396977515665315,10.099148861023053,124.15676712594347)" stroke="#3a7671" stroke-width="0.2"><path d="M9.98 0L9.15-2.66L4.45-2.66L3.63 0L-0.03 0L5.19-14.22L8.41-14.22L13.66 0L9.98 0ZM6.80-10.23L5.27-5.30L8.33-5.30L6.80-10.23ZM22.59-4.81L26.00-4.81Q25.93-3.33 25.20-2.19Q24.46-1.05 23.14-0.43Q21.82 0.20 20.12 0.20L20.12 0.20Q17.31 0.20 15.70-1.63Q14.09-3.46 14.09-6.79L14.09-6.79L14.09-7.49Q14.09-9.58 14.82-11.15Q15.55-12.71 16.91-13.57Q18.28-14.42 20.08-14.42L20.08-14.42Q22.67-14.42 24.24-13.06Q25.81-11.70 26.03-9.31L26.03-9.31L22.61-9.31Q22.57-10.61 21.95-11.17Q21.34-11.74 20.08-11.74L20.08-11.74Q18.80-11.74 18.20-10.78Q17.61-9.82 17.58-7.72L17.58-7.72L17.58-6.72Q17.58-4.44 18.15-3.47Q18.72-2.49 20.12-2.49L20.12-2.49Q21.30-2.49 21.92-3.05Q22.55-3.60 22.59-4.81L22.59-4.81ZM39.66-7.47L39.66-6.82Q39.66-4.74 38.89-3.13Q38.12-1.53 36.69-0.67Q35.27 0.20 33.46 0.20Q31.64 0.20 30.23-0.64Q28.83-1.47 28.04-3.03Q27.26-4.58 27.22-6.59L27.22-6.59L27.22-7.39Q27.22-9.48 27.98-11.08Q28.75-12.68 30.18-13.54Q31.61-14.41 33.44-14.41L33.44-14.41Q35.24-14.41 36.66-13.55Q38.08-12.70 38.86-11.11Q39.65-9.52 39.66-7.47L39.66-7.47ZM36.17-6.76L36.17-7.41Q36.17-9.53 35.46-10.63Q34.76-11.73 33.44-11.73L33.44-11.73Q30.86-11.73 30.71-7.86L30.71-7.86L30.70-6.82Q30.70-4.73 31.40-3.60Q32.09-2.48 33.46-2.48L33.46-2.48Q34.76-2.48 35.46-3.58Q36.16-4.69 36.17-6.76L36.17-6.76ZM49.52-4.81L52.93-4.81Q52.86-3.33 52.13-2.19Q51.40-1.05 50.07-0.43Q48.75 0.20 47.05 0.20L47.05 0.20Q44.25 0.20 42.64-1.63Q41.03-3.46 41.03-6.79L41.03-6.79L41.03-7.49Q41.03-9.58 41.75-11.15Q42.48-12.71 43.85-13.57Q45.21-14.42 47.01-14.42L47.01-14.42Q49.60-14.42 51.17-13.06Q52.74-11.70 52.96-9.31L52.96-9.31L49.54-9.31Q49.50-10.61 48.89-11.17Q48.27-11.74 47.01-11.74L47.01-11.74Q45.73-11.74 45.14-10.78Q44.54-9.82 44.51-7.72L44.51-7.72L44.51-6.72Q44.51-4.44 45.08-3.47Q45.65-2.49 47.05-2.49L47.05-2.49Q48.23-2.49 48.86-3.05Q49.48-3.60 49.52-4.81L49.52-4.81Z"></path></g></g></svg>